<svg width="44" height="44" viewBox="0 0 44 44" fill="none" xmlns="http://www.w3.org/2000/svg">
<path d="M31.1004 29.2394L26.1314 24.3554C26.9547 23.1994 27.4251 21.7833 27.4251 20.2806C27.4251 16.3502 24.1615 13.1423 20.1627 13.1423C16.164 13.1423 12.9004 16.3502 12.9004 20.2806C12.9004 24.2109 16.164 27.4188 20.1627 27.4188C21.7799 27.4188 23.2794 26.8986 24.4849 26.0027L29.4245 30.8578L31.1004 29.2394ZM20.1627 25.1068C17.4577 25.1068 15.2526 22.9393 15.2526 20.2806C15.2526 17.6218 17.4577 15.4543 20.1627 15.4543C22.8678 15.4543 25.0729 17.6218 25.0729 20.2806C25.0729 22.9393 22.8678 25.1068 20.1627 25.1068Z" fill="#4F4F4F"/>
</svg>
