<svg width="56" height="56" viewBox="0 0 56 56" fill="none" xmlns="http://www.w3.org/2000/svg">
<path d="M55.3143 29.4754L39.4665 29.3606L54.6635 33.801L39.0454 31.198L53.362 37.9353L38.3563 32.9589L51.448 41.8398L37.3993 34.5666L48.9216 45.3998L36.2127 35.983L45.8975 48.5005L34.7963 37.2462L42.414 51.1035L33.1886 38.2415L38.5477 53.1323L31.466 38.9688L34.4518 54.5104L29.6668 39.4282L30.1645 55.2377L27.7911 39.5813L25.8006 55.3143L25.9154 39.4665L21.5132 54.6635L24.078 39.0454L17.3407 53.362L22.3554 38.3563L13.4362 51.448L20.7476 37.3993L9.91446 48.9216L19.293 36.2127L6.8138 45.8975L18.0681 34.7963L4.21078 42.414L17.0728 33.1886L2.18195 38.5477L16.3455 31.466L0.765596 34.4518L15.8861 29.6668L0.0382798 30.1645L15.6947 27.7911L0 25.8006L15.8095 25.9154L0.612477 21.5132L16.2306 24.078L1.91399 17.3407L16.9579 22.3554L3.86626 13.4362L17.9149 20.7476L6.35444 9.91446L19.1016 19.293L9.41683 6.8138L20.518 18.0681L12.9003 4.21078L22.0874 17.0728L16.7283 2.18195L23.81 16.3455L20.8625 0.765596L25.6475 15.8861L25.1498 0.0382798L27.5232 15.6947L29.4754 0L29.3606 15.8095L33.801 0.612477L31.198 16.2306L37.9353 1.91399L32.9589 16.9579L41.8398 3.86626L34.5666 17.9149L45.3998 6.35444L35.983 19.1016L48.5005 9.41683L37.2462 20.518L51.1035 12.9003L38.2415 22.0874L53.1323 16.7283L38.9688 23.81L54.5104 20.8625L39.4282 25.6475L55.2377 25.1498L39.5813 27.5232L55.3143 29.4754Z" fill="#E3FF39"/>
</svg>
